# xmcd
#
# Track frame offsets:
#	150
#	17521
#	32905
#	44582
#	60731
#	72353
#	88308
#	103979
#	123160
#	145610
#	162822
#	178402
#	192820
#	209989
#	227568
#	243685
#	254075
#	264081
#	275587
#	296564
#	315140
#
# Disc length: 4449 seconds
#
# Revision: 1
# Processed by: cddbd v1.5.2PL0 Copyright (c) Steve Scherf et al.
# Submitted via: audiograbber 1.83.01
#
DISCID=41115f15
DTITLE=Various Artist - CDXMAS 1033
DYEAR=2013
DGENRE=Country
TTITLE0=Vince Vance and The Valiants - All I Want For Christmas Is You
TTITLE1=The Robertsons (Phil Robertson w. George Strait-) - Christmas Cookies
TTITLE2=The Robertsons - Duck The Halls
TTITLE3=The Robertsons (Willie Robertson w. Luke Bryan) - Hairy Christmas
TTITLE4=JT Hodges - Joy To The World
TTITLE5=The Robertsons - Ragin' Cajun Redneck Christmas
TTITLE6=Kacey Jones - Christmas In Rehab
TTITLE7=Kacey Jones - I'm Down To My Christmas Underwear
TTITLE8=Wayne Warner - The Journey
TTITLE9=Kelly Parkes - I Believe
TTITLE10=Tobi Gordon - Silent Night
TTITLE11=Mike Aiken - Almost Christmas
TTITLE12=Sarabeth - Grinch Please
TTITLE13=Samantha Landrum - Light A Candle
TTITLE14=Jeff Maddox - Merry Margarita
TTITLE15=Santa Claus - On The Throne Again
TTITLE16=The Smokey River Boys - Ring Those Joy Bells Of Christmas
TTITLE17=Courtney Rau - Santa Claus Is Coming To Town
TTITLE18=Newnum SOS Renewal - Where Would I Be
TTITLE19=Nancy Hays and The_Heffernans - Light In The Winter (Radio Version)
TTITLE20=Nancy Hays and The Heffernans - Light In The Winter (Dance Version)
EXTD=
EXTT0=
EXTT1=
EXTT2=
EXTT3=
EXTT4=
EXTT5=
EXTT6=
EXTT7=
EXTT8=
EXTT9=
EXTT10=
EXTT11=
EXTT12=
EXTT13=
EXTT14=
EXTT15=
EXTT16=
EXTT17=
EXTT18=
EXTT19=
EXTT20=
PLAYORDER=
